<svg xmlns="http://www.w3.org/2000/svg" viewBox="0 0 64 64">
  <rect width="64" height="64" rx="14" fill="#0e5a3c"/>
  <g fill="none" stroke="#ffffff" stroke-linecap="round">
    <path d="M27 52C28 42 29 32 35 21" stroke-width="4"/>
    <path d="M35 21C28 17 20 17 13 21" stroke-width="3.5"/>
    <path d="M35 21C29 14 22 12 15 13" stroke-width="3.5"/>
    <path d="M35 21C34 13 37 7 43 4" stroke-width="3.5"/>
    <path d="M35 21C42 14 49 12 55 14" stroke-width="3.5"/>
    <path d="M35 21C42 18 50 18 56 23" stroke-width="3.5"/>
    <path d="M6 58C14 52 24 53 30 57" stroke-width="2.5"/>
  </g>
  <circle cx="31" cy="25" r="2.5" fill="#ffffff"/>
  <circle cx="38" cy="26" r="2.5" fill="#ffffff"/>
  <ellipse cx="46" cy="50" rx="10" ry="6" transform="rotate(-16 46 50)" fill="#ffffff"/>
  <path d="M38.5 52.5L53.5 47.5" stroke="#0e5a3c" stroke-width="1.6" stroke-linecap="round" fill="none"/>
  <path d="M43 52.5V49M46 51.5V48M49 50.5V47" stroke="#0e5a3c" stroke-width="1.2" stroke-linecap="round" fill="none"/>
</svg>
