<svg xmlns="http://www.w3.org/2000/svg" viewBox="0 0 64 64">
  <!-- Simplified badge: petrol ring, cream band, teal sky, coconut + ball -->
  <circle cx="32" cy="32" r="31" fill="#004848"/>
  <circle cx="32" cy="32" r="28.5" fill="#f0d890"/>
  <circle cx="32" cy="32" r="21" fill="#60c0c0"/>
  <path d="M11 36c7-4 14-4 21-1s14 3 21-1v9a21 21 0 0 1-42 0z" fill="#009090"/>
  <ellipse cx="38" cy="24" rx="11" ry="7" transform="rotate(-35 38 24)" fill="#f0f0d8" stroke="#004848" stroke-width="2"/>
  <path d="M31 31l14-10" stroke="#004848" stroke-width="1.6" stroke-linecap="round"/>
  <path d="M28 47a10 8 0 0 1-8-9c4-2 9-3 16-1a10 8 0 0 1-8 10z" fill="#c07830" stroke="#004848" stroke-width="2"/>
  <path d="M20 38c5-2 11-2 16 0" fill="none" stroke="#f0f0d8" stroke-width="2.4" stroke-linecap="round"/>
</svg>
